<?xml version="1.0" encoding="UTF-8"?>
<svg xmlns="http://www.w3.org/2000/svg" xmlns:xlink="http://www.w3.org/1999/xlink" width="432pt" height="259pt" viewBox="0 0 432 259" version="1.1">
<defs>
<g>
<symbol overflow="visible" id="glyph0-0">
<path style="stroke:none;" d="M 1.101563 0 L 1.101563 -5.5 L 5.5 -5.5 L 5.5 0 Z M 1.238281 -0.136719 L 5.363281 -0.136719 L 5.363281 -5.363281 L 1.238281 -5.363281 Z M 1.238281 -0.136719 "/>
</symbol>
<symbol overflow="visible" id="glyph0-1">
<path style="stroke:none;" d="M 0.367188 -3.105469 C 0.363281 -3.847656 0.4375 -4.445313 0.59375 -4.902344 C 0.742188 -5.355469 0.972656 -5.707031 1.277344 -5.953125 C 1.578125 -6.199219 1.957031 -6.320313 2.417969 -6.324219 C 2.753906 -6.320313 3.050781 -6.253906 3.308594 -6.121094 C 3.5625 -5.984375 3.773438 -5.789063 3.9375 -5.53125 C 4.101563 -5.273438 4.230469 -4.960938 4.328125 -4.59375 C 4.421875 -4.226563 4.46875 -3.730469 4.472656 -3.105469 C 4.46875 -2.367188 4.394531 -1.769531 4.242188 -1.316406 C 4.089844 -0.859375 3.863281 -0.507813 3.5625 -0.261719 C 3.257813 -0.015625 2.875 0.105469 2.417969 0.109375 C 1.808594 0.105469 1.332031 -0.109375 0.988281 -0.546875 C 0.570313 -1.066406 0.363281 -1.921875 0.367188 -3.105469 Z M 1.160156 -3.105469 C 1.160156 -2.070313 1.28125 -1.378906 1.523438 -1.039063 C 1.765625 -0.695313 2.0625 -0.527344 2.417969 -0.527344 C 2.773438 -0.527344 3.074219 -0.699219 3.316406 -1.042969 C 3.558594 -1.386719 3.679688 -2.074219 3.679688 -3.105469 C 3.679688 -4.144531 3.558594 -4.832031 3.316406 -5.171875 C 3.074219 -5.511719 2.769531 -5.683594 2.410156 -5.683594 C 2.050781 -5.683594 1.769531 -5.53125 1.558594 -5.234375 C 1.292969 -4.84375 1.160156 -4.136719 1.160156 -3.105469 Z M 1.160156 -3.105469 "/>
</symbol>
<symbol overflow="visible" id="glyph0-2">
<path style="stroke:none;" d="M 0.367188 -1.648438 L 1.175781 -1.71875 C 1.234375 -1.320313 1.375 -1.023438 1.59375 -0.824219 C 1.8125 -0.625 2.078125 -0.527344 2.390625 -0.527344 C 2.761719 -0.527344 3.074219 -0.667969 3.335938 -0.949219 C 3.589844 -1.230469 3.71875 -1.601563 3.722656 -2.066406 C 3.71875 -2.503906 3.59375 -2.851563 3.347656 -3.109375 C 3.097656 -3.363281 2.773438 -3.492188 2.375 -3.492188 C 2.125 -3.492188 1.902344 -3.433594 1.703125 -3.320313 C 1.5 -3.207031 1.34375 -3.0625 1.230469 -2.882813 L 0.503906 -2.976563 L 1.113281 -6.214844 L 4.246094 -6.214844 L 4.246094 -5.472656 L 1.730469 -5.472656 L 1.390625 -3.78125 C 1.765625 -4.039063 2.164063 -4.171875 2.582031 -4.175781 C 3.128906 -4.171875 3.59375 -3.980469 3.972656 -3.605469 C 4.351563 -3.222656 4.539063 -2.734375 4.542969 -2.136719 C 4.539063 -1.5625 4.375 -1.070313 4.042969 -0.65625 C 3.636719 -0.148438 3.085938 0.105469 2.390625 0.109375 C 1.816406 0.105469 1.347656 -0.0507813 0.984375 -0.371094 C 0.621094 -0.691406 0.414063 -1.117188 0.367188 -1.648438 Z M 0.367188 -1.648438 "/>
</symbol>
<symbol overflow="visible" id="glyph0-3">
<path style="stroke:none;" d="M 3.277344 0 L 2.503906 0 L 2.503906 -4.929688 C 2.316406 -4.75 2.074219 -4.574219 1.773438 -4.394531 C 1.46875 -4.214844 1.195313 -4.082031 0.957031 -3.996094 L 0.957031 -4.742188 C 1.386719 -4.941406 1.765625 -5.1875 2.089844 -5.480469 C 2.414063 -5.769531 2.644531 -6.050781 2.78125 -6.324219 L 3.277344 -6.324219 Z M 3.277344 0 "/>
</symbol>
<symbol overflow="visible" id="glyph1-0">
<path style="stroke:none;" d="M 0.863281 -0.722656 L -2.753906 -5.03125 L 0.691406 -7.925781 L 4.308594 -3.617188 Z M 0.878906 -0.921875 L 4.109375 -3.632813 L 0.675781 -7.726563 L -2.554688 -5.015625 Z M 0.878906 -0.921875 "/>
</symbol>
<symbol overflow="visible" id="glyph1-1">
<path style="stroke:none;" d="M 1.011719 -0.851563 L 0.449219 -0.378906 L -3.691406 -5.3125 L -3.085938 -5.820313 L -1.605469 -4.0625 C -1.617188 -4.59375 -1.425781 -5.027344 -1.03125 -5.363281 C -0.808594 -5.542969 -0.5625 -5.675781 -0.292969 -5.753906 C -0.0273438 -5.832031 0.234375 -5.84375 0.5 -5.789063 C 0.757813 -5.734375 1.019531 -5.621094 1.285156 -5.457031 C 1.542969 -5.285156 1.785156 -5.074219 2.007813 -4.820313 C 2.519531 -4.207031 2.765625 -3.605469 2.742188 -3.019531 C 2.71875 -2.425781 2.496094 -1.953125 2.074219 -1.601563 C 1.652344 -1.242188 1.171875 -1.140625 0.636719 -1.296875 Z M -0.515625 -2.660156 C -0.15625 -2.230469 0.160156 -1.96875 0.4375 -1.875 C 0.886719 -1.722656 1.277344 -1.78125 1.605469 -2.058594 C 1.871094 -2.277344 2.003906 -2.585938 2.003906 -2.976563 C 2.003906 -3.367188 1.8125 -3.789063 1.429688 -4.25 C 1.039063 -4.714844 0.65625 -4.984375 0.285156 -5.050781 C -0.0859375 -5.117188 -0.402344 -5.039063 -0.667969 -4.820313 C -0.929688 -4.597656 -1.058594 -4.289063 -1.0625 -3.898438 C -1.058594 -3.503906 -0.878906 -3.09375 -0.515625 -2.660156 Z M -0.515625 -2.660156 "/>
</symbol>
<symbol overflow="visible" id="glyph1-2">
<path style="stroke:none;" d="M 1.9375 -3.585938 L 2.625 -4.035156 C 2.832031 -3.582031 2.886719 -3.144531 2.789063 -2.71875 C 2.691406 -2.292969 2.433594 -1.90625 2.023438 -1.558594 C 1.496094 -1.121094 0.945313 -0.933594 0.371094 -1 C -0.207031 -1.0625 -0.734375 -1.386719 -1.222656 -1.96875 C -1.726563 -2.570313 -1.964844 -3.164063 -1.933594 -3.757813 C -1.902344 -4.347656 -1.636719 -4.851563 -1.144531 -5.269531 C -0.664063 -5.667969 -0.140625 -5.832031 0.433594 -5.761719 C 1.011719 -5.6875 1.546875 -5.359375 2.042969 -4.773438 C 2.070313 -4.734375 2.113281 -4.679688 2.175781 -4.605469 L -0.492188 -2.371094 C -0.140625 -1.992188 0.222656 -1.785156 0.597656 -1.746094 C 0.972656 -1.707031 1.308594 -1.8125 1.609375 -2.0625 C 1.828125 -2.246094 1.96875 -2.460938 2.03125 -2.710938 C 2.089844 -2.957031 2.058594 -3.25 1.9375 -3.585938 Z M -0.875 -2.894531 L 1.121094 -4.570313 C 0.839844 -4.847656 0.574219 -5.007813 0.324219 -5.054688 C -0.0664063 -5.125 -0.410156 -5.03125 -0.71875 -4.777344 C -0.996094 -4.539063 -1.152344 -4.25 -1.1875 -3.90625 C -1.21875 -3.558594 -1.113281 -3.222656 -0.875 -2.894531 Z M -0.875 -2.894531 "/>
</symbol>
<symbol overflow="visible" id="glyph1-3">
<path style="stroke:none;" d="M 0.597656 -0.503906 L -2.003906 -3.605469 L -2.539063 -3.15625 L -2.9375 -3.628906 L -2.402344 -4.078125 L -2.71875 -4.457031 C -2.921875 -4.695313 -3.050781 -4.890625 -3.105469 -5.046875 C -3.175781 -5.25 -3.179688 -5.464844 -3.117188 -5.6875 C -3.050781 -5.90625 -2.882813 -6.128906 -2.621094 -6.351563 C -2.449219 -6.492188 -2.246094 -6.628906 -2.007813 -6.765625 L -1.652344 -6.160156 C -1.796875 -6.074219 -1.925781 -5.988281 -2.039063 -5.894531 C -2.222656 -5.738281 -2.320313 -5.589844 -2.332031 -5.449219 C -2.339844 -5.308594 -2.253906 -5.128906 -2.074219 -4.914063 L -1.796875 -4.582031 L -1.101563 -5.167969 L -0.707031 -4.695313 L -1.402344 -4.113281 L 1.203125 -1.007813 Z M 0.597656 -0.503906 "/>
</symbol>
<symbol overflow="visible" id="glyph1-4">
<path style="stroke:none;" d="M -1.269531 -1.980469 C -1.824219 -2.640625 -2.050781 -3.285156 -1.953125 -3.914063 C -1.863281 -4.4375 -1.601563 -4.882813 -1.164063 -5.253906 C -0.667969 -5.664063 -0.132813 -5.839844 0.445313 -5.78125 C 1.027344 -5.71875 1.554688 -5.40625 2.035156 -4.839844 C 2.417969 -4.378906 2.652344 -3.957031 2.738281 -3.582031 C 2.816406 -3.199219 2.789063 -2.828125 2.652344 -2.460938 C 2.507813 -2.09375 2.28125 -1.777344 1.972656 -1.519531 C 1.46875 -1.09375 0.929688 -0.914063 0.355469 -0.980469 C -0.222656 -1.039063 -0.761719 -1.375 -1.269531 -1.980469 Z M -0.648438 -2.503906 C -0.261719 -2.042969 0.125 -1.785156 0.515625 -1.726563 C 0.90625 -1.664063 1.25 -1.761719 1.554688 -2.015625 C 1.851563 -2.265625 2.007813 -2.589844 2.015625 -2.988281 C 2.023438 -3.386719 1.828125 -3.820313 1.4375 -4.289063 C 1.0625 -4.726563 0.683594 -4.976563 0.292969 -5.039063 C -0.0976563 -5.097656 -0.441406 -5 -0.742188 -4.753906 C -1.042969 -4.496094 -1.199219 -4.171875 -1.207031 -3.777344 C -1.214844 -3.382813 -1.027344 -2.957031 -0.648438 -2.503906 Z M -0.648438 -2.503906 "/>
</symbol>
<symbol overflow="visible" id="glyph1-5">
<path style="stroke:none;" d="M 0.449219 -0.375 L -2.550781 -3.949219 L -2.007813 -4.410156 L -1.550781 -3.867188 C -1.625 -4.234375 -1.636719 -4.507813 -1.585938 -4.691406 C -1.535156 -4.867188 -1.441406 -5.015625 -1.300781 -5.140625 C -1.09375 -5.304688 -0.832031 -5.414063 -0.515625 -5.464844 L -0.25 -4.730469 C -0.46875 -4.6875 -0.652344 -4.609375 -0.804688 -4.488281 C -0.933594 -4.375 -1.019531 -4.234375 -1.0625 -4.066406 C -1.097656 -3.898438 -1.082031 -3.722656 -1.007813 -3.546875 C -0.894531 -3.273438 -0.730469 -3.011719 -0.515625 -2.757813 L 1.054688 -0.882813 Z M 0.449219 -0.375 "/>
</symbol>
<symbol overflow="visible" id="glyph1-6">
<path style="stroke:none;" d="M 1.046875 1.457031 L 0.679688 1.019531 L 4.695313 -2.351563 L 5.0625 -1.914063 Z M 1.046875 1.457031 "/>
</symbol>
<symbol overflow="visible" id="glyph1-7">
<path style="stroke:none;" d="M 1.324219 -2.035156 L 1.859375 -1.570313 C 1.714844 -1.390625 1.578125 -1.242188 1.445313 -1.132813 C 1.222656 -0.945313 1.023438 -0.839844 0.847656 -0.808594 C 0.664063 -0.777344 0.5 -0.796875 0.359375 -0.867188 C 0.210938 -0.9375 -0.0078125 -1.15625 -0.3125 -1.523438 L -2.039063 -3.578125 L -2.484375 -3.207031 L -2.878906 -3.675781 L -2.433594 -4.050781 L -3.175781 -4.933594 L -2.878906 -5.804688 L -1.832031 -4.554688 L -1.222656 -5.066406 L -0.828125 -4.59375 L -1.4375 -4.085938 L 0.316406 -1.992188 C 0.460938 -1.820313 0.5625 -1.71875 0.628906 -1.6875 C 0.6875 -1.65625 0.757813 -1.644531 0.832031 -1.65625 C 0.902344 -1.664063 0.984375 -1.707031 1.078125 -1.785156 C 1.140625 -1.839844 1.222656 -1.921875 1.324219 -2.035156 Z M 1.324219 -2.035156 "/>
</symbol>
<symbol overflow="visible" id="glyph1-8">
<path style="stroke:none;" d="M 0.453125 -0.382813 L -2.546875 -3.957031 L -2 -4.414063 L -1.574219 -3.90625 C -1.640625 -4.515625 -1.425781 -5.03125 -0.929688 -5.449219 C -0.710938 -5.628906 -0.480469 -5.753906 -0.238281 -5.832031 C 0.0078125 -5.902344 0.226563 -5.914063 0.421875 -5.867188 C 0.617188 -5.8125 0.804688 -5.71875 0.988281 -5.578125 C 1.101563 -5.484375 1.277344 -5.296875 1.515625 -5.015625 L 3.359375 -2.820313 L 2.753906 -2.3125 L 0.929688 -4.484375 C 0.71875 -4.726563 0.539063 -4.894531 0.390625 -4.980469 C 0.238281 -5.0625 0.078125 -5.089844 -0.101563 -5.0625 C -0.28125 -5.03125 -0.453125 -4.949219 -0.617188 -4.816406 C -0.871094 -4.597656 -1.027344 -4.328125 -1.078125 -4.007813 C -1.125 -3.6875 -0.957031 -3.296875 -0.578125 -2.84375 L 1.058594 -0.890625 Z M 0.453125 -0.382813 "/>
</symbol>
<symbol overflow="visible" id="glyph1-9">
<path style="stroke:none;" d="M 0.453125 -0.382813 L -3.6875 -5.316406 L -3.082031 -5.824219 L -1.59375 -4.054688 C -1.585938 -4.617188 -1.367188 -5.078125 -0.9375 -5.445313 C -0.671875 -5.664063 -0.394531 -5.804688 -0.113281 -5.867188 C 0.167969 -5.921875 0.421875 -5.894531 0.664063 -5.785156 C 0.898438 -5.667969 1.167969 -5.4375 1.464844 -5.089844 L 3.367188 -2.824219 L 2.761719 -2.316406 L 0.859375 -4.582031 C 0.601563 -4.882813 0.351563 -5.046875 0.105469 -5.078125 C -0.136719 -5.105469 -0.378906 -5.019531 -0.625 -4.816406 C -0.800781 -4.664063 -0.929688 -4.472656 -1.011719 -4.25 C -1.089844 -4.023438 -1.097656 -3.804688 -1.03125 -3.589844 C -0.964844 -3.371094 -0.8125 -3.121094 -0.582031 -2.84375 L 1.058594 -0.890625 Z M 0.453125 -0.382813 "/>
</symbol>
<symbol overflow="visible" id="glyph1-10">
<path style="stroke:none;" d="M 2.417969 -2.78125 C 2.351563 -2.398438 2.246094 -2.082031 2.105469 -1.832031 C 1.960938 -1.578125 1.773438 -1.351563 1.539063 -1.152344 C 1.144531 -0.820313 0.761719 -0.664063 0.390625 -0.679688 C 0.0195313 -0.695313 -0.289063 -0.851563 -0.542969 -1.152344 C -0.6875 -1.324219 -0.78125 -1.515625 -0.824219 -1.730469 C -0.863281 -1.941406 -0.855469 -2.148438 -0.804688 -2.34375 C -0.746094 -2.539063 -0.65625 -2.726563 -0.535156 -2.90625 C -0.4375 -3.039063 -0.285156 -3.21875 -0.0742188 -3.449219 C 0.367188 -3.914063 0.667969 -4.285156 0.832031 -4.566406 C 0.761719 -4.644531 0.71875 -4.699219 0.703125 -4.726563 C 0.496094 -4.972656 0.292969 -5.097656 0.09375 -5.105469 C -0.171875 -5.105469 -0.457031 -4.980469 -0.769531 -4.730469 C -1.050781 -4.488281 -1.21875 -4.261719 -1.273438 -4.050781 C -1.320313 -3.832031 -1.273438 -3.574219 -1.128906 -3.269531 L -1.789063 -2.851563 C -1.945313 -3.148438 -2.03125 -3.425781 -2.039063 -3.6875 C -2.046875 -3.945313 -1.96875 -4.214844 -1.804688 -4.496094 C -1.640625 -4.773438 -1.40625 -5.042969 -1.101563 -5.304688 C -0.796875 -5.558594 -0.515625 -5.730469 -0.265625 -5.820313 C -0.015625 -5.90625 0.195313 -5.933594 0.378906 -5.902344 C 0.558594 -5.867188 0.738281 -5.785156 0.914063 -5.648438 C 1.019531 -5.5625 1.183594 -5.382813 1.414063 -5.117188 L 2.09375 -4.308594 C 2.5625 -3.742188 2.875 -3.398438 3.027344 -3.273438 C 3.175781 -3.144531 3.347656 -3.042969 3.542969 -2.972656 L 2.910156 -2.441406 C 2.738281 -2.511719 2.574219 -2.625 2.417969 -2.78125 Z M 1.230469 -4.089844 C 1.085938 -3.816406 0.820313 -3.460938 0.433594 -3.03125 C 0.214844 -2.78125 0.0703125 -2.59375 0.0078125 -2.464844 C -0.0585938 -2.332031 -0.078125 -2.199219 -0.0664063 -2.066406 C -0.046875 -1.929688 0 -1.8125 0.0898438 -1.710938 C 0.222656 -1.546875 0.398438 -1.460938 0.613281 -1.460938 C 0.824219 -1.453125 1.046875 -1.550781 1.285156 -1.75 C 1.515625 -1.941406 1.679688 -2.167969 1.777344 -2.425781 C 1.871094 -2.679688 1.890625 -2.929688 1.828125 -3.179688 C 1.777344 -3.371094 1.640625 -3.601563 1.417969 -3.867188 Z M 1.230469 -4.089844 "/>
</symbol>
<symbol overflow="visible" id="glyph1-11">
<path style="stroke:none;" d="M 2.773438 -2.328125 L 2.394531 -2.777344 C 2.460938 -2.230469 2.277344 -1.773438 1.84375 -1.40625 C 1.554688 -1.167969 1.226563 -1.027344 0.855469 -0.984375 C 0.484375 -0.9375 0.117188 -1 -0.25 -1.175781 C -0.613281 -1.34375 -0.949219 -1.613281 -1.261719 -1.980469 C -1.558594 -2.335938 -1.773438 -2.707031 -1.898438 -3.101563 C -2.023438 -3.488281 -2.03125 -3.863281 -1.921875 -4.21875 C -1.8125 -4.570313 -1.609375 -4.871094 -1.320313 -5.121094 C -1.101563 -5.300781 -0.871094 -5.414063 -0.628906 -5.46875 C -0.378906 -5.515625 -0.148438 -5.511719 0.078125 -5.457031 L -1.40625 -7.230469 L -0.804688 -7.734375 L 3.335938 -2.800781 Z M -0.640625 -2.503906 C -0.25 -2.042969 0.128906 -1.78125 0.511719 -1.71875 C 0.890625 -1.652344 1.214844 -1.730469 1.480469 -1.953125 C 1.742188 -2.171875 1.875 -2.46875 1.882813 -2.84375 C 1.882813 -3.210938 1.699219 -3.621094 1.328125 -4.070313 C 0.917969 -4.558594 0.523438 -4.839844 0.140625 -4.910156 C -0.238281 -4.980469 -0.566406 -4.898438 -0.84375 -4.667969 C -1.109375 -4.4375 -1.238281 -4.136719 -1.238281 -3.769531 C -1.230469 -3.394531 -1.03125 -2.972656 -0.640625 -2.503906 Z M -0.640625 -2.503906 "/>
</symbol>
<symbol overflow="visible" id="glyph1-12">
<path style="stroke:none;" d="M -3.097656 -4.621094 L -3.683594 -5.320313 L -3.078125 -5.828125 L -2.492188 -5.132813 Z M 0.457031 -0.382813 L -2.542969 -3.960938 L -1.9375 -4.46875 L 1.0625 -0.894531 Z M 0.457031 -0.382813 "/>
</symbol>
<symbol overflow="visible" id="glyph1-13">
<path style="stroke:none;" d="M 0.59375 0.0078125 L 1.253906 -0.398438 C 1.429688 -0.234375 1.609375 -0.15625 1.792969 -0.171875 C 2.035156 -0.183594 2.285156 -0.300781 2.550781 -0.523438 C 2.828125 -0.753906 3 -0.992188 3.058594 -1.234375 C 3.117188 -1.472656 3.085938 -1.71875 2.972656 -1.96875 C 2.894531 -2.117188 2.691406 -2.386719 2.363281 -2.78125 C 2.355469 -2.246094 2.15625 -1.8125 1.765625 -1.484375 C 1.273438 -1.066406 0.746094 -0.925781 0.179688 -1.054688 C -0.386719 -1.183594 -0.875 -1.496094 -1.292969 -1.996094 C -1.578125 -2.335938 -1.78125 -2.703125 -1.898438 -3.09375 C -2.015625 -3.484375 -2.023438 -3.855469 -1.925781 -4.210938 C -1.820313 -4.5625 -1.609375 -4.871094 -1.296875 -5.140625 C -0.871094 -5.492188 -0.382813 -5.613281 0.175781 -5.503906 L -0.1875 -5.9375 L 0.375 -6.40625 L 2.964844 -3.316406 C 3.433594 -2.757813 3.707031 -2.3125 3.789063 -1.988281 C 3.867188 -1.660156 3.839844 -1.328125 3.710938 -0.988281 C 3.574219 -0.644531 3.332031 -0.324219 2.976563 -0.0234375 C 2.546875 0.332031 2.121094 0.523438 1.699219 0.554688 C 1.273438 0.582031 0.902344 0.398438 0.59375 0.0078125 Z M -0.707031 -2.558594 C -0.3125 -2.085938 0.0664063 -1.820313 0.433594 -1.765625 C 0.800781 -1.703125 1.121094 -1.792969 1.402344 -2.03125 C 1.675781 -2.261719 1.820313 -2.566406 1.832031 -2.941406 C 1.839844 -3.3125 1.652344 -3.726563 1.269531 -4.1875 C 0.898438 -4.621094 0.523438 -4.867188 0.148438 -4.929688 C -0.234375 -4.984375 -0.558594 -4.902344 -0.832031 -4.675781 C -1.097656 -4.449219 -1.234375 -4.148438 -1.242188 -3.773438 C -1.246094 -3.394531 -1.066406 -2.988281 -0.707031 -2.558594 Z M -0.707031 -2.558594 "/>
</symbol>
<symbol overflow="visible" id="glyph2-0">
<path style="stroke:none;" d="M 0 -1.375 L -6.875 -1.375 L -6.875 -6.875 L 0 -6.875 Z M -0.171875 -1.546875 L -0.171875 -6.703125 L -6.703125 -6.703125 L -6.703125 -1.546875 Z M -0.171875 -1.546875 "/>
</symbol>
<symbol overflow="visible" id="glyph2-1">
<path style="stroke:none;" d="M -2.089844 -4.445313 L -1.964844 -5.398438 C -1.308594 -5.289063 -0.796875 -5.023438 -0.425781 -4.597656 C -0.0546875 -4.167969 0.128906 -3.644531 0.128906 -3.023438 C 0.128906 -2.242188 -0.125 -1.613281 -0.636719 -1.140625 C -1.144531 -0.664063 -1.875 -0.425781 -2.832031 -0.429688 C -3.441406 -0.425781 -3.980469 -0.527344 -4.445313 -0.734375 C -4.90625 -0.9375 -5.253906 -1.25 -5.484375 -1.667969 C -5.714844 -2.082031 -5.828125 -2.535156 -5.832031 -3.03125 C -5.828125 -3.644531 -5.671875 -4.152344 -5.363281 -4.546875 C -5.046875 -4.941406 -4.601563 -5.191406 -4.027344 -5.304688 L -3.882813 -4.367188 C -4.261719 -4.273438 -4.550781 -4.117188 -4.746094 -3.890625 C -4.941406 -3.664063 -5.039063 -3.386719 -5.039063 -3.066406 C -5.039063 -2.574219 -4.863281 -2.179688 -4.515625 -1.878906 C -4.164063 -1.570313 -3.613281 -1.417969 -2.859375 -1.421875 C -2.089844 -1.417969 -1.53125 -1.566406 -1.183594 -1.863281 C -0.835938 -2.15625 -0.660156 -2.539063 -0.664063 -3.011719 C -0.660156 -3.390625 -0.777344 -3.707031 -1.011719 -3.960938 C -1.242188 -4.214844 -1.601563 -4.375 -2.089844 -4.445313 Z M -2.089844 -4.445313 "/>
</symbol>
<symbol overflow="visible" id="glyph2-2">
<path style="stroke:none;" d="M -2.851563 -0.367188 C -3.90625 -0.363281 -4.6875 -0.65625 -5.199219 -1.246094 C -5.617188 -1.734375 -5.828125 -2.332031 -5.832031 -3.039063 C -5.828125 -3.820313 -5.574219 -4.460938 -5.0625 -4.960938 C -4.546875 -5.457031 -3.835938 -5.707031 -2.933594 -5.710938 C -2.195313 -5.707031 -1.617188 -5.597656 -1.199219 -5.378906 C -0.777344 -5.15625 -0.449219 -4.832031 -0.21875 -4.414063 C 0.015625 -3.992188 0.128906 -3.535156 0.128906 -3.039063 C 0.128906 -2.238281 -0.125 -1.59375 -0.636719 -1.105469 C -1.148438 -0.609375 -1.886719 -0.363281 -2.851563 -0.367188 Z M -2.851563 -1.359375 C -2.121094 -1.359375 -1.574219 -1.515625 -1.210938 -1.835938 C -0.84375 -2.152344 -0.660156 -2.554688 -0.664063 -3.039063 C -0.660156 -3.515625 -0.84375 -3.914063 -1.210938 -4.234375 C -1.574219 -4.550781 -2.132813 -4.710938 -2.882813 -4.714844 C -3.585938 -4.710938 -4.117188 -4.550781 -4.484375 -4.234375 C -4.84375 -3.910156 -5.027344 -3.511719 -5.03125 -3.039063 C -5.027344 -2.554688 -4.847656 -2.152344 -4.488281 -1.835938 C -4.128906 -1.515625 -3.582031 -1.359375 -2.851563 -1.359375 Z M -2.851563 -1.359375 "/>
</symbol>
<symbol overflow="visible" id="glyph2-3">
<path style="stroke:none;" d="M 0 -4.464844 L -0.835938 -4.464844 C -0.191406 -4.019531 0.128906 -3.414063 0.128906 -2.652344 C 0.128906 -2.3125 0.0664063 -2 -0.0625 -1.710938 C -0.191406 -1.417969 -0.355469 -1.199219 -0.550781 -1.058594 C -0.746094 -0.914063 -0.984375 -0.816406 -1.265625 -0.761719 C -1.453125 -0.722656 -1.753906 -0.703125 -2.171875 -0.703125 L -5.703125 -0.703125 L -5.703125 -1.671875 L -2.539063 -1.671875 C -2.03125 -1.667969 -1.691406 -1.6875 -1.519531 -1.730469 C -1.261719 -1.785156 -1.0625 -1.914063 -0.917969 -2.113281 C -0.773438 -2.308594 -0.703125 -2.554688 -0.703125 -2.847656 C -0.703125 -3.136719 -0.777344 -3.40625 -0.925781 -3.660156 C -1.074219 -3.914063 -1.273438 -4.09375 -1.53125 -4.199219 C -1.785156 -4.304688 -2.160156 -4.359375 -2.648438 -4.359375 L -5.703125 -4.359375 L -5.703125 -5.328125 L 0 -5.328125 Z M 0 -4.464844 "/>
</symbol>
<symbol overflow="visible" id="glyph2-4">
<path style="stroke:none;" d="M 0 -0.726563 L -5.703125 -0.726563 L -5.703125 -1.59375 L -4.894531 -1.59375 C -5.515625 -2.011719 -5.828125 -2.617188 -5.832031 -3.410156 C -5.828125 -3.753906 -5.765625 -4.066406 -5.644531 -4.355469 C -5.519531 -4.640625 -5.359375 -4.859375 -5.160156 -5.003906 C -4.957031 -5.144531 -4.71875 -5.242188 -4.445313 -5.304688 C -4.265625 -5.335938 -3.953125 -5.355469 -3.507813 -5.359375 L 0 -5.359375 L 0 -4.394531 L -3.46875 -4.394531 C -3.863281 -4.394531 -4.15625 -4.355469 -4.351563 -4.28125 C -4.542969 -4.203125 -4.699219 -4.070313 -4.820313 -3.878906 C -4.933594 -3.6875 -4.992188 -3.460938 -4.996094 -3.207031 C -4.992188 -2.792969 -4.859375 -2.4375 -4.601563 -2.140625 C -4.335938 -1.835938 -3.84375 -1.6875 -3.117188 -1.691406 L 0 -1.691406 Z M 0 -0.726563 "/>
</symbol>
<symbol overflow="visible" id="glyph2-5">
<path style="stroke:none;" d="M -0.863281 -2.835938 L -0.0117188 -2.976563 C 0.0429688 -2.703125 0.0703125 -2.457031 0.0742188 -2.246094 C 0.0703125 -1.890625 0.0195313 -1.621094 -0.0898438 -1.429688 C -0.199219 -1.234375 -0.347656 -1.097656 -0.527344 -1.019531 C -0.707031 -0.941406 -1.085938 -0.902344 -1.671875 -0.902344 L -4.953125 -0.902344 L -4.953125 -0.195313 L -5.703125 -0.195313 L -5.703125 -0.902344 L -7.117188 -0.902344 L -7.695313 -1.863281 L -5.703125 -1.863281 L -5.703125 -2.835938 L -4.953125 -2.835938 L -4.953125 -1.863281 L -1.617188 -1.863281 C -1.339844 -1.863281 -1.160156 -1.878906 -1.082031 -1.914063 C -1 -1.945313 -0.9375 -2 -0.894531 -2.078125 C -0.847656 -2.152344 -0.824219 -2.261719 -0.828125 -2.410156 C -0.824219 -2.515625 -0.835938 -2.660156 -0.863281 -2.835938 Z M -0.863281 -2.835938 "/>
</symbol>
</g>
<clipPath id="clip1">
  <path d="M 33.453125 5.480469 L 427 5.480469 L 427 185 L 33.453125 185 Z M 33.453125 5.480469 "/>
</clipPath>
<clipPath id="clip2">
  <path d="M 33.453125 148 L 427 148 L 427 150 L 33.453125 150 Z M 33.453125 148 "/>
</clipPath>
<clipPath id="clip3">
  <path d="M 33.453125 94 L 427 94 L 427 96 L 33.453125 96 Z M 33.453125 94 "/>
</clipPath>
<clipPath id="clip4">
  <path d="M 33.453125 40 L 427 40 L 427 41 L 33.453125 41 Z M 33.453125 40 "/>
</clipPath>
<clipPath id="clip5">
  <path d="M 33.453125 175 L 427.519531 175 L 427.519531 177 L 33.453125 177 Z M 33.453125 175 "/>
</clipPath>
<clipPath id="clip6">
  <path d="M 33.453125 121 L 427.519531 121 L 427.519531 123 L 33.453125 123 Z M 33.453125 121 "/>
</clipPath>
<clipPath id="clip7">
  <path d="M 33.453125 67 L 427.519531 67 L 427.519531 69 L 33.453125 69 Z M 33.453125 67 "/>
</clipPath>
<clipPath id="clip8">
  <path d="M 33.453125 13 L 427.519531 13 L 427.519531 15 L 33.453125 15 Z M 33.453125 13 "/>
</clipPath>
<clipPath id="clip9">
  <path d="M 140 5.480469 L 142 5.480469 L 142 185 L 140 185 Z M 140 5.480469 "/>
</clipPath>
<clipPath id="clip10">
  <path d="M 318 5.480469 L 320 5.480469 L 320 185 L 318 185 Z M 318 5.480469 "/>
</clipPath>
</defs>
<g id="surface6">
<rect x="0" y="0" width="432" height="259" style="fill:rgb(100%,100%,100%);fill-opacity:1;stroke:none;"/>
<rect x="0" y="0" width="432" height="259" style="fill:rgb(100%,100%,100%);fill-opacity:1;stroke:none;"/>
<path style="fill:none;stroke-width:1.066978;stroke-linecap:round;stroke-linejoin:round;stroke:rgb(100%,100%,100%);stroke-opacity:1;stroke-miterlimit:10;" d="M 0 259 L 432 259 L 432 0 L 0 0 Z M 0 259 "/>
<g clip-path="url(#clip1)" clip-rule="nonzero">
<path style=" stroke:none;fill-rule:nonzero;fill:rgb(92.156863%,92.156863%,92.156863%);fill-opacity:1;" d="M 33.453125 184.460938 L 426.519531 184.460938 L 426.519531 5.480469 L 33.453125 5.480469 Z M 33.453125 184.460938 "/>
</g>
<g clip-path="url(#clip2)" clip-rule="nonzero">
<path style="fill:none;stroke-width:0.533489;stroke-linecap:butt;stroke-linejoin:round;stroke:rgb(100%,100%,100%);stroke-opacity:1;stroke-miterlimit:10;" d="M 33.453125 149.207031 L 426.519531 149.207031 "/>
</g>
<g clip-path="url(#clip3)" clip-rule="nonzero">
<path style="fill:none;stroke-width:0.533489;stroke-linecap:butt;stroke-linejoin:round;stroke:rgb(100%,100%,100%);stroke-opacity:1;stroke-miterlimit:10;" d="M 33.453125 94.96875 L 426.519531 94.96875 "/>
</g>
<g clip-path="url(#clip4)" clip-rule="nonzero">
<path style="fill:none;stroke-width:0.533489;stroke-linecap:butt;stroke-linejoin:round;stroke:rgb(100%,100%,100%);stroke-opacity:1;stroke-miterlimit:10;" d="M 33.453125 40.734375 L 426.519531 40.734375 "/>
</g>
<g clip-path="url(#clip5)" clip-rule="nonzero">
<path style="fill:none;stroke-width:1.066978;stroke-linecap:butt;stroke-linejoin:round;stroke:rgb(100%,100%,100%);stroke-opacity:1;stroke-miterlimit:10;" d="M 33.453125 176.324219 L 426.519531 176.324219 "/>
</g>
<g clip-path="url(#clip6)" clip-rule="nonzero">
<path style="fill:none;stroke-width:1.066978;stroke-linecap:butt;stroke-linejoin:round;stroke:rgb(100%,100%,100%);stroke-opacity:1;stroke-miterlimit:10;" d="M 33.453125 122.089844 L 426.519531 122.089844 "/>
</g>
<g clip-path="url(#clip7)" clip-rule="nonzero">
<path style="fill:none;stroke-width:1.066978;stroke-linecap:butt;stroke-linejoin:round;stroke:rgb(100%,100%,100%);stroke-opacity:1;stroke-miterlimit:10;" d="M 33.453125 67.851563 L 426.519531 67.851563 "/>
</g>
<g clip-path="url(#clip8)" clip-rule="nonzero">
<path style="fill:none;stroke-width:1.066978;stroke-linecap:butt;stroke-linejoin:round;stroke:rgb(100%,100%,100%);stroke-opacity:1;stroke-miterlimit:10;" d="M 33.453125 13.613281 L 426.519531 13.613281 "/>
</g>
<g clip-path="url(#clip9)" clip-rule="nonzero">
<path style="fill:none;stroke-width:1.066978;stroke-linecap:butt;stroke-linejoin:round;stroke:rgb(100%,100%,100%);stroke-opacity:1;stroke-miterlimit:10;" d="M 140.652344 184.460938 L 140.652344 5.480469 "/>
</g>
<g clip-path="url(#clip10)" clip-rule="nonzero">
<path style="fill:none;stroke-width:1.066978;stroke-linecap:butt;stroke-linejoin:round;stroke:rgb(100%,100%,100%);stroke-opacity:1;stroke-miterlimit:10;" d="M 319.320313 184.460938 L 319.320313 5.480469 "/>
</g>
<path style=" stroke:none;fill-rule:nonzero;fill:rgb(34.901961%,34.901961%,34.901961%);fill-opacity:1;" d="M 95.988281 176.324219 L 185.320313 176.324219 L 185.320313 13.613281 L 95.988281 13.613281 Z M 95.988281 176.324219 "/>
<path style=" stroke:none;fill-rule:nonzero;fill:rgb(34.901961%,34.901961%,34.901961%);fill-opacity:1;" d="M 274.652344 176.324219 L 363.984375 176.324219 L 363.984375 122.085938 L 274.652344 122.085938 Z M 274.652344 176.324219 "/>
<g style="fill:rgb(30.196078%,30.196078%,30.196078%);fill-opacity:1;">
  <use xlink:href="#glyph0-1" x="23.625" y="179.472656"/>
</g>
<g style="fill:rgb(30.196078%,30.196078%,30.196078%);fill-opacity:1;">
  <use xlink:href="#glyph0-2" x="23.625" y="125.238281"/>
</g>
<g style="fill:rgb(30.196078%,30.196078%,30.196078%);fill-opacity:1;">
  <use xlink:href="#glyph0-3" x="18.730469" y="71"/>
  <use xlink:href="#glyph0-1" x="23.624609" y="71"/>
</g>
<g style="fill:rgb(30.196078%,30.196078%,30.196078%);fill-opacity:1;">
  <use xlink:href="#glyph0-3" x="18.730469" y="16.765625"/>
  <use xlink:href="#glyph0-2" x="23.624609" y="16.765625"/>
</g>
<path style="fill:none;stroke-width:1.066978;stroke-linecap:butt;stroke-linejoin:round;stroke:rgb(20%,20%,20%);stroke-opacity:1;stroke-miterlimit:10;" d="M 30.714844 176.324219 L 33.453125 176.324219 "/>
<path style="fill:none;stroke-width:1.066978;stroke-linecap:butt;stroke-linejoin:round;stroke:rgb(20%,20%,20%);stroke-opacity:1;stroke-miterlimit:10;" d="M 30.714844 122.089844 L 33.453125 122.089844 "/>
<path style="fill:none;stroke-width:1.066978;stroke-linecap:butt;stroke-linejoin:round;stroke:rgb(20%,20%,20%);stroke-opacity:1;stroke-miterlimit:10;" d="M 30.714844 67.851563 L 33.453125 67.851563 "/>
<path style="fill:none;stroke-width:1.066978;stroke-linecap:butt;stroke-linejoin:round;stroke:rgb(20%,20%,20%);stroke-opacity:1;stroke-miterlimit:10;" d="M 30.714844 13.613281 L 33.453125 13.613281 "/>
<path style="fill:none;stroke-width:1.066978;stroke-linecap:butt;stroke-linejoin:round;stroke:rgb(20%,20%,20%);stroke-opacity:1;stroke-miterlimit:10;" d="M 140.652344 187.199219 L 140.652344 184.460938 "/>
<path style="fill:none;stroke-width:1.066978;stroke-linecap:butt;stroke-linejoin:round;stroke:rgb(20%,20%,20%);stroke-opacity:1;stroke-miterlimit:10;" d="M 319.320313 187.199219 L 319.320313 184.460938 "/>
<g style="fill:rgb(30.196078%,30.196078%,30.196078%);fill-opacity:1;">
  <use xlink:href="#glyph1-1" x="112.273438" y="241.746094"/>
  <use xlink:href="#glyph1-2" x="116.107774" y="238.528703"/>
  <use xlink:href="#glyph1-3" x="119.942111" y="235.311313"/>
  <use xlink:href="#glyph1-4" x="121.857596" y="233.70403"/>
  <use xlink:href="#glyph1-5" x="125.691933" y="230.486639"/>
  <use xlink:href="#glyph1-2" x="127.987822" y="228.56016"/>
  <use xlink:href="#glyph1-6" x="131.822159" y="225.342769"/>
  <use xlink:href="#glyph1-1" x="135.656495" y="222.125379"/>
  <use xlink:href="#glyph1-4" x="139.490832" y="218.907988"/>
  <use xlink:href="#glyph1-4" x="143.325169" y="215.690598"/>
  <use xlink:href="#glyph1-7" x="147.159505" y="212.473207"/>
  <use xlink:href="#glyph1-6" x="149.074991" y="210.865924"/>
  <use xlink:href="#glyph1-8" x="152.909327" y="207.648534"/>
  <use xlink:href="#glyph1-6" x="156.743664" y="204.431143"/>
  <use xlink:href="#glyph1-1" x="160.578001" y="201.213753"/>
  <use xlink:href="#glyph1-4" x="164.412337" y="197.996362"/>
  <use xlink:href="#glyph1-4" x="168.246674" y="194.778972"/>
  <use xlink:href="#glyph1-7" x="172.081011" y="191.561581"/>
</g>
<g style="fill:rgb(30.196078%,30.196078%,30.196078%);fill-opacity:1;">
  <use xlink:href="#glyph1-9" x="309.535156" y="226.144531"/>
  <use xlink:href="#glyph1-2" x="313.369493" y="222.927141"/>
  <use xlink:href="#glyph1-10" x="317.20383" y="219.70975"/>
  <use xlink:href="#glyph1-11" x="321.038166" y="216.49236"/>
  <use xlink:href="#glyph1-12" x="324.872503" y="213.274969"/>
  <use xlink:href="#glyph1-8" x="326.404218" y="211.989708"/>
  <use xlink:href="#glyph1-13" x="330.238555" y="208.772317"/>
</g>
<g style="fill:rgb(0%,0%,0%);fill-opacity:1;">
  <use xlink:href="#glyph2-1" x="13.351563" y="108.421875"/>
  <use xlink:href="#glyph2-2" x="13.351563" y="102.921875"/>
  <use xlink:href="#glyph2-3" x="13.351563" y="96.804199"/>
  <use xlink:href="#glyph2-4" x="13.351563" y="90.686523"/>
  <use xlink:href="#glyph2-5" x="13.351563" y="84.568848"/>
</g>
</g>
</svg>
